{
  "accessors": [
    {
      "bufferView": 0,
      "byteOffset": 0,
      "componentType": 5125,
      "normalized": false,
      "count": 36,
      "type": "SCALAR",
      "max": [
        7
      ],
      "min": [
        0
      ]
    },
    {
      "bufferView": 1,
      "byteOffset": 0,
      "componentType": 5126,
      "normalized": false,
      "count": 8,
      "type": "VEC3",
      "max": [
        0.7899900000000001,
        1.2849899999999999,
        0.0
      ],
      "min": [
        -0.7899900000000001,
        -1.2849899999999999,
        -2.0
      ]
    },
    {
      "bufferView": 2,
      "byteOffset": 0,
      "componentType": 5125,
      "normalized": false,
      "count": 36,
      "type": "SCALAR",
      "max": [
        7
      ],
      "min": [
        0
      ]
    },
    {
      "bufferView": 3,
      "byteOffset": 0,
      "componentType": 5126,
      "normalized": false,
      "count": 8,
      "type": "VEC3",
      "max": [
        0.36499,
        0.49999,
        0.02
      ],
      "min": [
        -0.36499,
        -0.49999,
        -0.12
      ]
    },
    {
      "bufferView": 4,
      "byteOffset": 0,
      "componentType": 5125,
      "normalized": false,
      "count": 108,
      "type": "SCALAR",
      "max": [
        23
      ],
      "min": [
        0
      ]
    },
    {
      "bufferView": 5,
      "byteOffset": 0,
      "componentType": 5126,
      "normalized": false,
      "count": 24,
      "type": "VEC3",
      "max": [
        0.16499,
        0.9399900000000001,
        0.18
      ],
      "min": [
        -0.16499,
        -0.9399900000000001,
        0.0
      ]
    },
    {
      "bufferView": 6,
      "byteOffset": 0,
      "componentType": 5125,
      "normalized": false,
      "count": 792,
      "type": "SCALAR",
      "max": [
        175
      ],
      "min": [
        0
      ]
    },
    {
      "bufferView": 7,
      "byteOffset": 0,
      "componentType": 5126,
      "normalized": false,
      "count": 176,
      "type": "VEC3",
      "max": [
        0.87499,
        1.36999,
        0.936
      ],
      "min": [
        -0.87499,
        -1.36999,
        0.0
      ]
    },
    {
      "bufferView": 8,
      "byteOffset": 0,
      "componentType": 5125,
      "normalized": false,
      "count": 288,
      "type": "SCALAR",
      "max": [
        63
      ],
      "min": [
        0
      ]
    },
    {
      "bufferView": 9,
      "byteOffset": 0,
      "componentType": 5126,
      "normalized": false,
      "count": 64,
      "type": "VEC3",
      "max": [
        0.87499,
        1.36999,
        1.136
      ],
      "min": [
        -0.87499,
        -1.36999,
        0.936
      ]
    },
    {
      "bufferView": 10,
      "byteOffset": 0,
      "componentType": 5125,
      "normalized": false,
      "count": 216,
      "type": "SCALAR",
      "max": [
        47
      ],
      "min": [
        0
      ]
    },
    {
      "bufferView": 11,
      "byteOffset": 0,
      "componentType": 5126,
      "normalized": false,
      "count": 48,
      "type": "VEC3",
      "max": [
        0.30499,
        0.85999,
        1.376
      ],
      "min": [
        -0.30499,
        -0.85999,
        1.011
      ]
    },
    {
      "bufferView": 12,
      "byteOffset": 0,
      "componentType": 5125,
      "normalized": false,
      "count": 144,
      "type": "SCALAR",
      "max": [
        31
      ],
      "min": [
        0
      ]
    },
    {
      "bufferView": 13,
      "byteOffset": 0,
      "componentType": 5126,
      "normalized": false,
      "count": 32,
      "type": "VEC3",
      "max": [
        0.33499,
        0.8899900000000001,
        1.736
      ],
      "min": [
        -0.33499,
        -0.8899900000000001,
        1.376
      ]
    },
    {
      "bufferView": 14,
      "byteOffset": 0,
      "componentType": 5125,
      "normalized": false,
      "count": 36,
      "type": "SCALAR",
      "max": [
        7
      ],
      "min": [
        0
      ]
    },
    {
      "bufferView": 15,
      "byteOffset": 0,
      "componentType": 5126,
      "normalized": false,
      "count": 8,
      "type": "VEC3",
      "max": [
        0.7899900000000001,
        1.32999,
        0.0
      ],
      "min": [
        -0.7899900000000001,
        -1.32999,
        -2.0
      ]
    },
    {
      "bufferView": 16,
      "byteOffset": 0,
      "componentType": 5125,
      "normalized": false,
      "count": 36,
      "type": "SCALAR",
      "max": [
        7
      ],
      "min": [
        0
      ]
    },
    {
      "bufferView": 17,
      "byteOffset": 0,
      "componentType": 5126,
      "normalized": false,
      "count": 8,
      "type": "VEC3",
      "max": [
        1.0549899999999999,
        1.59499,
        0.01
      ],
      "min": [
        -1.0549899999999999,
        -1.59499,
        -0.5
      ]
    },
    {
      "bufferView": 18,
      "byteOffset": 0,
      "componentType": 5125,
      "normalized": false,
      "count": 36,
      "type": "SCALAR",
      "max": [
        7
      ],
      "min": [
        0
      ]
    },
    {
      "bufferView": 19,
      "byteOffset": 0,
      "componentType": 5126,
      "normalized": false,
      "count": 8,
      "type": "VEC3",
      "max": [
        0.36499,
        0.49999,
        0.02
      ],
      "min": [
        -0.36499,
        -0.49999,
        -0.12
      ]
    },
    {
      "bufferView": 20,
      "byteOffset": 0,
      "componentType": 5125,
      "normalized": false,
      "count": 108,
      "type": "SCALAR",
      "max": [
        23
      ],
      "min": [
        0
      ]
    },
    {
      "bufferView": 21,
      "byteOffset": 0,
      "componentType": 5126,
      "normalized": false,
      "count": 24,
      "type": "VEC3",
      "max": [
        0.16499,
        0.98499,
        0.18
      ],
      "min": [
        -0.16499,
        -0.98499,
        0.0
      ]
    },
    {
      "bufferView": 22,
      "byteOffset": 0,
      "componentType": 5125,
      "normalized": false,
      "count": 864,
      "type": "SCALAR",
      "max": [
        191
      ],
      "min": [
        0
      ]
    },
    {
      "bufferView": 23,
      "byteOffset": 0,
      "componentType": 5126,
      "normalized": false,
      "count": 192,
      "type": "VEC3",
      "max": [
        0.87499,
        1.41499,
        0.936
      ],
      "min": [
        -0.87499,
        -1.41499,
        0.0
      ]
    },
    {
      "bufferView": 24,
      "byteOffset": 0,
      "componentType": 5125,
      "normalized": false,
      "count": 288,
      "type": "SCALAR",
      "max": [
        63
      ],
      "min": [
        0
      ]
    },
    {
      "bufferView": 25,
      "byteOffset": 0,
      "componentType": 5126,
      "normalized": false,
      "count": 64,
      "type": "VEC3",
      "max": [
        0.87499,
        1.41499,
        1.136
      ],
      "min": [
        -0.87499,
        -1.41499,
        0.936
      ]
    },
    {
      "bufferView": 26,
      "byteOffset": 0,
      "componentType": 5125,
      "normalized": false,
      "count": 216,
      "type": "SCALAR",
      "max": [
        47
      ],
      "min": [
        0
      ]
    },
    {
      "bufferView": 27,
      "byteOffset": 0,
      "componentType": 5126,
      "normalized": false,
      "count": 48,
      "type": "VEC3",
      "max": [
        0.30499,
        0.9049900000000001,
        1.376
      ],
      "min": [
        -0.30499,
        -0.9049900000000001,
        1.011
      ]
    },
    {
      "bufferView": 28,
      "byteOffset": 0,
      "componentType": 5125,
      "normalized": false,
      "count": 144,
      "type": "SCALAR",
      "max": [
        31
      ],
      "min": [
        0
      ]
    },
    {
      "bufferView": 29,
      "byteOffset": 0,
      "componentType": 5126,
      "normalized": false,
      "count": 32,
      "type": "VEC3",
      "max": [
        0.33499,
        0.9349900000000001,
        1.736
      ],
      "min": [
        -0.33499,
        -0.9349900000000001,
        1.376
      ]
    },
    {
      "bufferView": 30,
      "byteOffset": 0,
      "componentType": 5125,
      "normalized": false,
      "count": 36,
      "type": "SCALAR",
      "max": [
        7
      ],
      "min": [
        0
      ]
    },
    {
      "bufferView": 31,
      "byteOffset": 0,
      "componentType": 5126,
      "normalized": false,
      "count": 8,
      "type": "VEC3",
      "max": [
        5.3699900000000005,
        1.2849899999999999,
        0.0
      ],
      "min": [
        -5.3699900000000005,
        -1.2849899999999999,
        -2.0
      ]
    },
    {
      "bufferView": 32,
      "byteOffset": 0,
      "componentType": 5125,
      "normalized": false,
      "count": 36,
      "type": "SCALAR",
      "max": [
        7
      ],
      "min": [
        0
      ]
    },
    {
      "bufferView": 33,
      "byteOffset": 0,
      "componentType": 5126,
      "normalized": false,
      "count": 8,
      "type": "VEC3",
      "max": [
        4.944990000000001,
        0.49999,
        0.02
      ],
      "min": [
        -4.944990000000001,
        -0.49999,
        -0.12
      ]
    },
    {
      "bufferView": 34,
      "byteOffset": 0,
      "componentType": 5125,
      "normalized": false,
      "count": 1440,
      "type": "SCALAR",
      "max": [
        319
      ],
      "min": [
        0
      ]
    },
    {
      "bufferView": 35,
      "byteOffset": 0,
      "componentType": 5126,
      "normalized": false,
      "count": 320,
      "type": "VEC3",
      "max": [
        4.724990000000001,
        0.9399900000000001,
        0.18
      ],
      "min": [
        -4.724990000000001,
        -0.9399900000000001,
        0.0
      ]
    },
    {
      "bufferView": 36,
      "byteOffset": 0,
      "componentType": 5125,
      "normalized": false,
      "count": 5436,
      "type": "SCALAR",
      "max": [
        1207
      ],
      "min": [
        0
      ]
    },
    {
      "bufferView": 37,
      "byteOffset": 0,
      "componentType": 5126,
      "normalized": false,
      "count": 1208,
      "type": "VEC3",
      "max": [
        5.4549900000000004,
        1.36999,
        0.936
      ],
      "min": [
        -5.4549900000000004,
        -1.36999,
        0.0
      ]
    },
    {
      "bufferView": 38,
      "byteOffset": 0,
      "componentType": 5125,
      "normalized": false,
      "count": 1620,
      "type": "SCALAR",
      "max": [
        359
      ],
      "min": [
        0
      ]
    },
    {
      "bufferView": 39,
      "byteOffset": 0,
      "componentType": 5126,
      "normalized": false,
      "count": 360,
      "type": "VEC3",
      "max": [
        5.4549900000000004,
        1.36999,
        1.136
      ],
      "min": [
        -5.4549900000000004,
        -1.36999,
        0.936
      ]
    },
    {
      "bufferView": 40,
      "byteOffset": 0,
      "componentType": 5125,
      "normalized": false,
      "count": 2232,
      "type": "SCALAR",
      "max": [
        495
      ],
      "min": [
        0
      ]
    },
    {
      "bufferView": 41,
      "byteOffset": 0,
      "componentType": 5126,
      "normalized": false,
      "count": 496,
      "type": "VEC3",
      "max": [
        4.88499,
        0.85999,
        1.376
      ],
      "min": [
        -4.88499,
        -0.85999,
        1.011
      ]
    },
    {
      "bufferView": 42,
      "byteOffset": 0,
      "componentType": 5125,
      "normalized": false,
      "count": 1476,
      "type": "SCALAR",
      "max": [
        327
      ],
      "min": [
        0
      ]
    },
    {
      "bufferView": 43,
      "byteOffset": 0,
      "componentType": 5126,
      "normalized": false,
      "count": 328,
      "type": "VEC3",
      "max": [
        4.91499,
        0.8899900000000001,
        1.736
      ],
      "min": [
        -4.91499,
        -0.8899900000000001,
        1.376
      ]
    },
    {
      "bufferView": 44,
      "byteOffset": 0,
      "componentType": 5125,
      "normalized": false,
      "count": 36,
      "type": "SCALAR",
      "max": [
        7
      ],
      "min": [
        0
      ]
    },
    {
      "bufferView": 45,
      "byteOffset": 0,
      "componentType": 5126,
      "normalized": false,
      "count": 8,
      "type": "VEC3",
      "max": [
        5.3699900000000005,
        1.32999,
        0.0
      ],
      "min": [
        -5.3699900000000005,
        -1.32999,
        -2.0
      ]
    },
    {
      "bufferView": 46,
      "byteOffset": 0,
      "componentType": 5125,
      "normalized": false,
      "count": 36,
      "type": "SCALAR",
      "max": [
        7
      ],
      "min": [
        0
      ]
    },
    {
      "bufferView": 47,
      "byteOffset": 0,
      "componentType": 5126,
      "normalized": false,
      "count": 8,
      "type": "VEC3",
      "max": [
        5.63499,
        1.59499,
        0.01
      ],
      "min": [
        -5.63499,
        -1.59499,
        -0.5
      ]
    },
    {
      "bufferView": 48,
      "byteOffset": 0,
      "componentType": 5125,
      "normalized": false,
      "count": 36,
      "type": "SCALAR",
      "max": [
        7
      ],
      "min": [
        0
      ]
    },
    {
      "bufferView": 49,
      "byteOffset": 0,
      "componentType": 5126,
      "normalized": false,
      "count": 8,
      "type": "VEC3",
      "max": [
        4.944990000000001,
        0.49999,
        0.02
      ],
      "min": [
        -4.944990000000001,
        -0.49999,
        -0.12
      ]
    },
    {
      "bufferView": 50,
      "byteOffset": 0,
      "componentType": 5125,
      "normalized": false,
      "count": 1440,
      "type": "SCALAR",
      "max": [
        319
      ],
      "min": [
        0
      ]
    },
    {
      "bufferView": 51,
      "byteOffset": 0,
      "componentType": 5126,
      "normalized": false,
      "count": 320,
      "type": "VEC3",
      "max": [
        4.724990000000001,
        0.98499,
        0.18
      ],
      "min": [
        -4.724990000000001,
        -0.98499,
        0.0
      ]
    },
    {
      "bufferView": 52,
      "byteOffset": 0,
      "componentType": 5125,
      "normalized": false,
      "count": 5508,
      "type": "SCALAR",
      "max": [
        1223
      ],
      "min": [
        0
      ]
    },
    {
      "bufferView": 53,
      "byteOffset": 0,
      "componentType": 5126,
      "normalized": false,
      "count": 1224,
      "type": "VEC3",
      "max": [
        5.4549900000000004,
        1.41499,
        0.936
      ],
      "min": [
        -5.4549900000000004,
        -1.41499,
        0.0
      ]
    },
    {
      "bufferView": 54,
      "byteOffset": 0,
      "componentType": 5125,
      "normalized": false,
      "count": 1620,
      "type": "SCALAR",
      "max": [
        359
      ],
      "min": [
        0
      ]
    },
    {
      "bufferView": 55,
      "byteOffset": 0,
      "componentType": 5126,
      "normalized": false,
      "count": 360,
      "type": "VEC3",
      "max": [
        5.4549900000000004,
        1.41499,
        1.136
      ],
      "min": [
        -5.4549900000000004,
        -1.41499,
        0.936
      ]
    },
    {
      "bufferView": 56,
      "byteOffset": 0,
      "componentType": 5125,
      "normalized": false,
      "count": 2232,
      "type": "SCALAR",
      "max": [
        495
      ],
      "min": [
        0
      ]
    },
    {
      "bufferView": 57,
      "byteOffset": 0,
      "componentType": 5126,
      "normalized": false,
      "count": 496,
      "type": "VEC3",
      "max": [
        4.88499,
        0.9049900000000001,
        1.376
      ],
      "min": [
        -4.88499,
        -0.9049900000000001,
        1.011
      ]
    },
    {
      "bufferView": 58,
      "byteOffset": 0,
      "componentType": 5125,
      "normalized": false,
      "count": 1476,
      "type": "SCALAR",
      "max": [
        327
      ],
      "min": [
        0
      ]
    },
    {
      "bufferView": 59,
      "byteOffset": 0,
      "componentType": 5126,
      "normalized": false,
      "count": 328,
      "type": "VEC3",
      "max": [
        4.91499,
        0.9349900000000001,
        1.736
      ],
      "min": [
        -4.91499,
        -0.9349900000000001,
        1.376
      ]
    },
    {
      "bufferView": 60,
      "byteOffset": 0,
      "componentType": 5125,
      "normalized": false,
      "count": 144,
      "type": "SCALAR",
      "max": [
        31
      ],
      "min": [
        0
      ]
    },
    {
      "bufferView": 61,
      "byteOffset": 0,
      "componentType": 5126,
      "normalized": false,
      "count": 32,
      "type": "VEC3",
      "max": [
        16.349990000000002,
        5.03999,
        1.136
      ],
      "min": [
        4.62001,
        -1.9299899999999999,
        0.936
      ]
    },
    {
      "bufferView": 62,
      "byteOffset": 0,
      "componentType": 5125,
      "normalized": false,
      "count": 1296,
      "type": "SCALAR",
      "max": [
        287
      ],
      "min": [
        0
      ]
    },
    {
      "bufferView": 63,
      "byteOffset": 0,
      "componentType": 5126,
      "normalized": false,
      "count": 288,
      "type": "VEC3",
      "max": [
        16.294990000000002,
        5.01499,
        1.376
      ],
      "min": [
        4.65501,
        -1.88499,
        1.011
      ]
    },
    {
      "bufferView": 64,
      "byteOffset": 0,
      "componentType": 5125,
      "normalized": false,
      "count": 3384,
      "type": "SCALAR",
      "max": [
        751
      ],
      "min": [
        0
      ]
    },
    {
      "bufferView": 65,
      "byteOffset": 0,
      "componentType": 5126,
      "normalized": false,
      "count": 752,
      "type": "VEC3",
      "max": [
        22.239990000000002,
        7.33999,
        1.736
      ],
      "min": [
        -1.1799899999999999,
        -4.13999,
        1.376
      ]
    },
    {
      "bufferView": 66,
      "byteOffset": 0,
      "componentType": 5125,
      "normalized": false,
      "count": 1728,
      "type": "SCALAR",
      "max": [
        383
      ],
      "min": [
        0
      ]
    },
    {
      "bufferView": 67,
      "byteOffset": 0,
      "componentType": 5126,
      "normalized": false,
      "count": 384,
      "type": "VEC3",
      "max": [
        20.28499,
        5.474990000000001,
        2.0
      ],
      "min": [
        6.45501,
        -2.09499,
        1.736
      ]
    },
    {
      "bufferView": 68,
      "byteOffset": 0,
      "componentType": 5125,
      "normalized": false,
      "count": 2880,
      "type": "SCALAR",
      "max": [
        639
      ],
      "min": [
        0
      ]
    },
    {
      "bufferView": 69,
      "byteOffset": 0,
      "componentType": 5126,
      "normalized": false,
      "count": 640,
      "type": "VEC3",
      "max": [
        20.59499,
        5.609990000000001,
        2.36
      ],
      "min": [
        6.33001,
        -2.22999,
        2.0
      ]
    },
    {
      "bufferView": 70,
      "byteOffset": 0,
      "componentType": 5125,
      "normalized": false,
      "count": 36,
      "type": "SCALAR",
      "max": [
        7
      ],
      "min": [
        0
      ]
    },
    {
      "bufferView": 71,
      "byteOffset": 0,
      "componentType": 5126,
      "normalized": false,
      "count": 8,
      "type": "VEC3",
      "max": [
        160.99999,
        225.75999,
        0.0
      ],
      "min": [
        1e-05,
        1e-05,
        -2.0
      ]
    },
    {
      "bufferView": 72,
      "byteOffset": 0,
      "componentType": 5125,
      "normalized": false,
      "count": 324,
      "type": "SCALAR",
      "max": [
        71
      ],
      "min": [
        0
      ]
    },
    {
      "bufferView": 73,
      "byteOffset": 0,
      "componentType": 5126,
      "normalized": false,
      "count": 72,
      "type": "VEC3",
      "max": [
        157.18999,
        23.30999,
        1.736
      ],
      "min": [
        126.95001,
        12.03001,
        1.376
      ]
    },
    {
      "bufferView": 74,
      "byteOffset": 0,
      "componentType": 5125,
      "normalized": false,
      "count": 1440,
      "type": "SCALAR",
      "max": [
        319
      ],
      "min": [
        0
      ]
    },
    {
      "bufferView": 75,
      "byteOffset": 0,
      "componentType": 5126,
      "normalized": false,
      "count": 320,
      "type": "VEC3",
      "max": [
        157.09499,
        23.08499,
        2.0
      ],
      "min": [
        127.14501,
        12.25501,
        1.736
      ]
    },
    {
      "bufferView": 76,
      "byteOffset": 0,
      "componentType": 5125,
      "normalized": false,
      "count": 432,
      "type": "SCALAR",
      "max": [
        95
      ],
      "min": [
        0
      ]
    },
    {
      "bufferView": 77,
      "byteOffset": 0,
      "componentType": 5126,
      "normalized": false,
      "count": 96,
      "type": "VEC3",
      "max": [
        157.17999,
        23.29999,
        2.36
      ],
      "min": [
        121.74001000000001,
        12.04001,
        2.0
      ]
    },
    {
      "bufferView": 78,
      "byteOffset": 0,
      "componentType": 5125,
      "normalized": false,
      "count": 720,
      "type": "SCALAR",
      "max": [
        159
      ],
      "min": [
        0
      ]
    },
    {
      "bufferView": 79,
      "byteOffset": 0,
      "componentType": 5126,
      "normalized": false,
      "count": 160,
      "type": "VEC3",
      "max": [
        156.95999,
        23.02999,
        2.786
      ],
      "min": [
        121.99001000000001,
        12.31001,
        2.36
      ]
    },
    {
      "bufferView": 80,
      "byteOffset": 0,
      "componentType": 5125,
      "normalized": false,
      "count": 396,
      "type": "SCALAR",
      "max": [
        87
      ],
      "min": [
        0
      ]
    },
    {
      "bufferView": 81,
      "byteOffset": 0,
      "componentType": 5126,
      "normalized": false,
      "count": 88,
      "type": "VEC3",
      "max": [
        157.15999,
        23.30499,
        3.631
      ],
      "min": [
        34.05001,
        12.03501,
        2.786
      ]
    },
    {
      "bufferView": 82,
      "byteOffset": 0,
      "componentType": 5125,
      "normalized": false,
      "count": 720,
      "type": "SCALAR",
      "max": [
        159
      ],
      "min": [
        0
      ]
    },
    {
      "bufferView": 83,
      "byteOffset": 0,
      "componentType": 5126,
      "normalized": false,
      "count": 160,
      "type": "VEC3",
      "max": [
        156.95999,
        23.02999,
        4.0211
      ],
      "min": [
        34.30001000000001,
        12.31001,
        3.631
      ]
    },
    {
      "bufferView": 84,
      "byteOffset": 0,
      "componentType": 5125,
      "normalized": false,
      "count": 2088,
      "type": "SCALAR",
      "max": [
        463
      ],
      "min": [
        0
      ]
    },
    {
      "bufferView": 85,
      "byteOffset": 0,
      "componentType": 5126,
      "normalized": false,
      "count": 464,
      "type": "VEC3",
      "max": [
        158.84999,
        225.75999,
        4.8661
      ],
      "min": [
        1.00001,
        1e-05,
        4.0211
      ]
    }
  ],
  "asset": {
    "generator": "pygltflib@v1.16.3",
    "version": "2.0"
  },
  "bufferViews": [
    {
      "buffer": 0,
      "byteOffset": 0,
      "byteLength": 144,
      "target": 34963
    },
    {
      "buffer": 0,
      "byteOffset": 144,
      "byteLength": 96,
      "target": 34962
    },
    {
      "buffer": 0,
      "byteOffset": 240,
      "byteLength": 144,
      "target": 34963
    },
    {
      "buffer": 0,
      "byteOffset": 384,
      "byteLength": 96,
      "target": 34962
    },
    {
      "buffer": 0,
      "byteOffset": 480,
      "byteLength": 432,
      "target": 34963
    },
    {
      "buffer": 0,
      "byteOffset": 912,
      "byteLength": 288,
      "target": 34962
    },
    {
      "buffer": 0,
      "byteOffset": 1200,
      "byteLength": 3168,
      "target": 34963
    },
    {
      "buffer": 0,
      "byteOffset": 4368,
      "byteLength": 2112,
      "target": 34962
    },
    {
      "buffer": 0,
      "byteOffset": 6480,
      "byteLength": 1152,
      "target": 34963
    },
    {
      "buffer": 0,
      "byteOffset": 7632,
      "byteLength": 768,
      "target": 34962
    },
    {
      "buffer": 0,
      "byteOffset": 8400,
      "byteLength": 864,
      "target": 34963
    },
    {
      "buffer": 0,
      "byteOffset": 9264,
      "byteLength": 576,
      "target": 34962
    },
    {
      "buffer": 0,
      "byteOffset": 9840,
      "byteLength": 576,
      "target": 34963
    },
    {
      "buffer": 0,
      "byteOffset": 10416,
      "byteLength": 384,
      "target": 34962
    },
    {
      "buffer": 0,
      "byteOffset": 10800,
      "byteLength": 144,
      "target": 34963
    },
    {
      "buffer": 0,
      "byteOffset": 10944,
      "byteLength": 96,
      "target": 34962
    },
    {
      "buffer": 0,
      "byteOffset": 11040,
      "byteLength": 144,
      "target": 34963
    },
    {
      "buffer": 0,
      "byteOffset": 11184,
      "byteLength": 96,
      "target": 34962
    },
    {
      "buffer": 0,
      "byteOffset": 11280,
      "byteLength": 144,
      "target": 34963
    },
    {
      "buffer": 0,
      "byteOffset": 11424,
      "byteLength": 96,
      "target": 34962
    },
    {
      "buffer": 0,
      "byteOffset": 11520,
      "byteLength": 432,
      "target": 34963
    },
    {
      "buffer": 0,
      "byteOffset": 11952,
      "byteLength": 288,
      "target": 34962
    },
    {
      "buffer": 0,
      "byteOffset": 12240,
      "byteLength": 3456,
      "target": 34963
    },
    {
      "buffer": 0,
      "byteOffset": 15696,
      "byteLength": 2304,
      "target": 34962
    },
    {
      "buffer": 0,
      "byteOffset": 18000,
      "byteLength": 1152,
      "target": 34963
    },
    {
      "buffer": 0,
      "byteOffset": 19152,
      "byteLength": 768,
      "target": 34962
    },
    {
      "buffer": 0,
      "byteOffset": 19920,
      "byteLength": 864,
      "target": 34963
    },
    {
      "buffer": 0,
      "byteOffset": 20784,
      "byteLength": 576,
      "target": 34962
    },
    {
      "buffer": 0,
      "byteOffset": 21360,
      "byteLength": 576,
      "target": 34963
    },
    {
      "buffer": 0,
      "byteOffset": 21936,
      "byteLength": 384,
      "target": 34962
    },
    {
      "buffer": 0,
      "byteOffset": 22320,
      "byteLength": 144,
      "target": 34963
    },
    {
      "buffer": 0,
      "byteOffset": 22464,
      "byteLength": 96,
      "target": 34962
    },
    {
      "buffer": 0,
      "byteOffset": 22560,
      "byteLength": 144,
      "target": 34963
    },
    {
      "buffer": 0,
      "byteOffset": 22704,
      "byteLength": 96,
      "target": 34962
    },
    {
      "buffer": 0,
      "byteOffset": 22800,
      "byteLength": 5760,
      "target": 34963
    },
    {
      "buffer": 0,
      "byteOffset": 28560,
      "byteLength": 3840,
      "target": 34962
    },
    {
      "buffer": 0,
      "byteOffset": 32400,
      "byteLength": 21744,
      "target": 34963
    },
    {
      "buffer": 0,
      "byteOffset": 54144,
      "byteLength": 14496,
      "target": 34962
    },
    {
      "buffer": 0,
      "byteOffset": 68640,
      "byteLength": 6480,
      "target": 34963
    },
    {
      "buffer": 0,
      "byteOffset": 75120,
      "byteLength": 4320,
      "target": 34962
    },
    {
      "buffer": 0,
      "byteOffset": 79440,
      "byteLength": 8928,
      "target": 34963
    },
    {
      "buffer": 0,
      "byteOffset": 88368,
      "byteLength": 5952,
      "target": 34962
    },
    {
      "buffer": 0,
      "byteOffset": 94320,
      "byteLength": 5904,
      "target": 34963
    },
    {
      "buffer": 0,
      "byteOffset": 100224,
      "byteLength": 3936,
      "target": 34962
    },
    {
      "buffer": 0,
      "byteOffset": 104160,
      "byteLength": 144,
      "target": 34963
    },
    {
      "buffer": 0,
      "byteOffset": 104304,
      "byteLength": 96,
      "target": 34962
    },
    {
      "buffer": 0,
      "byteOffset": 104400,
      "byteLength": 144,
      "target": 34963
    },
    {
      "buffer": 0,
      "byteOffset": 104544,
      "byteLength": 96,
      "target": 34962
    },
    {
      "buffer": 0,
      "byteOffset": 104640,
      "byteLength": 144,
      "target": 34963
    },
    {
      "buffer": 0,
      "byteOffset": 104784,
      "byteLength": 96,
      "target": 34962
    },
    {
      "buffer": 0,
      "byteOffset": 104880,
      "byteLength": 5760,
      "target": 34963
    },
    {
      "buffer": 0,
      "byteOffset": 110640,
      "byteLength": 3840,
      "target": 34962
    },
    {
      "buffer": 0,
      "byteOffset": 114480,
      "byteLength": 22032,
      "target": 34963
    },
    {
      "buffer": 0,
      "byteOffset": 136512,
      "byteLength": 14688,
      "target": 34962
    },
    {
      "buffer": 0,
      "byteOffset": 151200,
      "byteLength": 6480,
      "target": 34963
    },
    {
      "buffer": 0,
      "byteOffset": 157680,
      "byteLength": 4320,
      "target": 34962
    },
    {
      "buffer": 0,
      "byteOffset": 162000,
      "byteLength": 8928,
      "target": 34963
    },
    {
      "buffer": 0,
      "byteOffset": 170928,
      "byteLength": 5952,
      "target": 34962
    },
    {
      "buffer": 0,
      "byteOffset": 176880,
      "byteLength": 5904,
      "target": 34963
    },
    {
      "buffer": 0,
      "byteOffset": 182784,
      "byteLength": 3936,
      "target": 34962
    },
    {
      "buffer": 0,
      "byteOffset": 186720,
      "byteLength": 576,
      "target": 34963
    },
    {
      "buffer": 0,
      "byteOffset": 187296,
      "byteLength": 384,
      "target": 34962
    },
    {
      "buffer": 0,
      "byteOffset": 187680,
      "byteLength": 5184,
      "target": 34963
    },
    {
      "buffer": 0,
      "byteOffset": 192864,
      "byteLength": 3456,
      "target": 34962
    },
    {
      "buffer": 0,
      "byteOffset": 196320,
      "byteLength": 13536,
      "target": 34963
    },
    {
      "buffer": 0,
      "byteOffset": 209856,
      "byteLength": 9024,
      "target": 34962
    },
    {
      "buffer": 0,
      "byteOffset": 218880,
      "byteLength": 6912,
      "target": 34963
    },
    {
      "buffer": 0,
      "byteOffset": 225792,
      "byteLength": 4608,
      "target": 34962
    },
    {
      "buffer": 0,
      "byteOffset": 230400,
      "byteLength": 11520,
      "target": 34963
    },
    {
      "buffer": 0,
      "byteOffset": 241920,
      "byteLength": 7680,
      "target": 34962
    },
    {
      "buffer": 0,
      "byteOffset": 249600,
      "byteLength": 144,
      "target": 34963
    },
    {
      "buffer": 0,
      "byteOffset": 249744,
      "byteLength": 96,
      "target": 34962
    },
    {
      "buffer": 0,
      "byteOffset": 249840,
      "byteLength": 1296,
      "target": 34963
    },
    {
      "buffer": 0,
      "byteOffset": 251136,
      "byteLength": 864,
      "target": 34962
    },
    {
      "buffer": 0,
      "byteOffset": 252000,
      "byteLength": 5760,
      "target": 34963
    },
    {
      "buffer": 0,
      "byteOffset": 257760,
      "byteLength": 3840,
      "target": 34962
    },
    {
      "buffer": 0,
      "byteOffset": 261600,
      "byteLength": 1728,
      "target": 34963
    },
    {
      "buffer": 0,
      "byteOffset": 263328,
      "byteLength": 1152,
      "target": 34962
    },
    {
      "buffer": 0,
      "byteOffset": 264480,
      "byteLength": 2880,
      "target": 34963
    },
    {
      "buffer": 0,
      "byteOffset": 267360,
      "byteLength": 1920,
      "target": 34962
    },
    {
      "buffer": 0,
      "byteOffset": 269280,
      "byteLength": 1584,
      "target": 34963
    },
    {
      "buffer": 0,
      "byteOffset": 270864,
      "byteLength": 1056,
      "target": 34962
    },
    {
      "buffer": 0,
      "byteOffset": 271920,
      "byteLength": 2880,
      "target": 34963
    },
    {
      "buffer": 0,
      "byteOffset": 274800,
      "byteLength": 1920,
      "target": 34962
    },
    {
      "buffer": 0,
      "byteOffset": 276720,
      "byteLength": 8352,
      "target": 34963
    },
    {
      "buffer": 0,
      "byteOffset": 285072,
      "byteLength": 5568,
      "target": 34962
    }
  ],
  "buffers": [
    {
      "uri": "data:application/octet-stream;base64,",
      "byteLength": 290640
    }
  ],
  "materials": [
    {
      "pbrMetallicRoughness": {
        "baseColorFactor": [
          0.2,
          0.2,
          0.2,
          1.0
        ],
        "metallicFactor": 0.5,
        "roughnessFactor": 0.5
      },
      "emissiveFactor": [
        0.0,
        0.0,
        0.0
      ],
      "alphaMode": "OPAQUE",
      "alphaCutoff": 0.5,
      "doubleSided": false,
      "name": "substrate"
    },
    {
      "pbrMetallicRoughness": {
        "baseColorFactor": [
          0.4,
          0.4,
          0.4,
          1.0
        ],
        "metallicFactor": 0.5,
        "roughnessFactor": 0.5
      },
      "emissiveFactor": [
        0.0,
        0.0,
        0.0
      ],
      "alphaMode": "OPAQUE",
      "alphaCutoff": 0.5,
      "doubleSided": false,
      "name": "nwell"
    },
    {
      "pbrMetallicRoughness": {
        "baseColorFactor": [
          0.9,
          0.9,
          0.9,
          1.0
        ],
        "metallicFactor": 0.5,
        "roughnessFactor": 0.5
      },
      "emissiveFactor": [
        0.0,
        0.0,
        0.0
      ],
      "alphaMode": "OPAQUE",
      "alphaCutoff": 0.5,
      "doubleSided": false,
      "name": "diff"
    },
    {
      "pbrMetallicRoughness": {
        "baseColorFactor": [
          0.75,
          0.35,
          0.46,
          1.0
        ],
        "metallicFactor": 0.5,
        "roughnessFactor": 0.5
      },
      "emissiveFactor": [
        0.0,
        0.0,
        0.0
      ],
      "alphaMode": "OPAQUE",
      "alphaCutoff": 0.5,
      "doubleSided": false,
      "name": "poly"
    },
    {
      "pbrMetallicRoughness": {
        "baseColorFactor": [
          0.2,
          0.2,
          0.2,
          1.0
        ],
        "metallicFactor": 0.5,
        "roughnessFactor": 0.5
      },
      "emissiveFactor": [
        0.0,
        0.0,
        0.0
      ],
      "alphaMode": "OPAQUE",
      "alphaCutoff": 0.5,
      "doubleSided": false,
      "name": "licon"
    },
    {
      "pbrMetallicRoughness": {
        "baseColorFactor": [
          1.0,
          0.81,
          0.55,
          1.0
        ],
        "metallicFactor": 0.5,
        "roughnessFactor": 0.5
      },
      "emissiveFactor": [
        0.0,
        0.0,
        0.0
      ],
      "alphaMode": "OPAQUE",
      "alphaCutoff": 0.5,
      "doubleSided": false,
      "name": "li1"
    },
    {
      "pbrMetallicRoughness": {
        "baseColorFactor": [
          0.2,
          0.2,
          0.2,
          1.0
        ],
        "metallicFactor": 0.5,
        "roughnessFactor": 0.5
      },
      "emissiveFactor": [
        0.0,
        0.0,
        0.0
      ],
      "alphaMode": "OPAQUE",
      "alphaCutoff": 0.5,
      "doubleSided": false,
      "name": "mcon"
    },
    {
      "pbrMetallicRoughness": {
        "baseColorFactor": [
          0.16,
          0.38,
          0.83,
          1.0
        ],
        "metallicFactor": 0.5,
        "roughnessFactor": 0.5
      },
      "emissiveFactor": [
        0.0,
        0.0,
        0.0
      ],
      "alphaMode": "OPAQUE",
      "alphaCutoff": 0.5,
      "doubleSided": false,
      "name": "met1"
    },
    {
      "pbrMetallicRoughness": {
        "baseColorFactor": [
          0.2,
          0.2,
          0.2,
          1.0
        ],
        "metallicFactor": 0.5,
        "roughnessFactor": 0.5
      },
      "emissiveFactor": [
        0.0,
        0.0,
        0.0
      ],
      "alphaMode": "OPAQUE",
      "alphaCutoff": 0.5,
      "doubleSided": false,
      "name": "via"
    },
    {
      "pbrMetallicRoughness": {
        "baseColorFactor": [
          0.65,
          0.75,
          0.9,
          1.0
        ],
        "metallicFactor": 0.5,
        "roughnessFactor": 0.5
      },
      "emissiveFactor": [
        0.0,
        0.0,
        0.0
      ],
      "alphaMode": "OPAQUE",
      "alphaCutoff": 0.5,
      "doubleSided": false,
      "name": "met2"
    },
    {
      "pbrMetallicRoughness": {
        "baseColorFactor": [
          0.2,
          0.2,
          0.2,
          1.0
        ],
        "metallicFactor": 0.5,
        "roughnessFactor": 0.5
      },
      "emissiveFactor": [
        0.0,
        0.0,
        0.0
      ],
      "alphaMode": "OPAQUE",
      "alphaCutoff": 0.5,
      "doubleSided": false,
      "name": "via2"
    },
    {
      "pbrMetallicRoughness": {
        "baseColorFactor": [
          0.2,
          0.62,
          0.86,
          1.0
        ],
        "metallicFactor": 0.5,
        "roughnessFactor": 0.5
      },
      "emissiveFactor": [
        0.0,
        0.0,
        0.0
      ],
      "alphaMode": "OPAQUE",
      "alphaCutoff": 0.5,
      "doubleSided": false,
      "name": "met3"
    },
    {
      "pbrMetallicRoughness": {
        "baseColorFactor": [
          0.2,
          0.2,
          0.2,
          1.0
        ],
        "metallicFactor": 0.5,
        "roughnessFactor": 0.5
      },
      "emissiveFactor": [
        0.0,
        0.0,
        0.0
      ],
      "alphaMode": "OPAQUE",
      "alphaCutoff": 0.5,
      "doubleSided": false,
      "name": "via3"
    },
    {
      "pbrMetallicRoughness": {
        "baseColorFactor": [
          0.15,
          0.11,
          0.38,
          1.0
        ],
        "metallicFactor": 0.5,
        "roughnessFactor": 0.5
      },
      "emissiveFactor": [
        0.0,
        0.0,
        0.0
      ],
      "alphaMode": "OPAQUE",
      "alphaCutoff": 0.5,
      "doubleSided": false,
      "name": "met4"
    },
    {
      "pbrMetallicRoughness": {
        "baseColorFactor": [
          0.2,
          0.2,
          0.2,
          1.0
        ],
        "metallicFactor": 0.5,
        "roughnessFactor": 0.5
      },
      "emissiveFactor": [
        0.0,
        0.0,
        0.0
      ],
      "alphaMode": "OPAQUE",
      "alphaCutoff": 0.5,
      "doubleSided": false,
      "name": "via4"
    },
    {
      "pbrMetallicRoughness": {
        "baseColorFactor": [
          0.4,
          0.4,
          0.4,
          1.0
        ],
        "metallicFactor": 0.5,
        "roughnessFactor": 0.5
      },
      "emissiveFactor": [
        0.0,
        0.0,
        0.0
      ],
      "alphaMode": "OPAQUE",
      "alphaCutoff": 0.5,
      "doubleSided": false,
      "name": "met5"
    }
  ],
  "meshes": [
    {
      "primitives": [
        {
          "attributes": {
            "POSITION": 1
          },
          "indices": 0,
          "mode": 4,
          "material": 0
        }
      ]
    },
    {
      "primitives": [
        {
          "attributes": {
            "POSITION": 3
          },
          "indices": 2,
          "mode": 4,
          "material": 2
        }
      ]
    },
    {
      "primitives": [
        {
          "attributes": {
            "POSITION": 5
          },
          "indices": 4,
          "mode": 4,
          "material": 3
        }
      ]
    },
    {
      "primitives": [
        {
          "attributes": {
            "POSITION": 7
          },
          "indices": 6,
          "mode": 4,
          "material": 4
        }
      ]
    },
    {
      "primitives": [
        {
          "attributes": {
            "POSITION": 9
          },
          "indices": 8,
          "mode": 4,
          "material": 5
        }
      ]
    },
    {
      "primitives": [
        {
          "attributes": {
            "POSITION": 11
          },
          "indices": 10,
          "mode": 4,
          "material": 6
        }
      ]
    },
    {
      "primitives": [
        {
          "attributes": {
            "POSITION": 13
          },
          "indices": 12,
          "mode": 4,
          "material": 7
        }
      ]
    },
    {
      "primitives": [
        {
          "attributes": {
            "POSITION": 15
          },
          "indices": 14,
          "mode": 4,
          "material": 0
        }
      ]
    },
    {
      "primitives": [
        {
          "attributes": {
            "POSITION": 17
          },
          "indices": 16,
          "mode": 4,
          "material": 1
        }
      ]
    },
    {
      "primitives": [
        {
          "attributes": {
            "POSITION": 19
          },
          "indices": 18,
          "mode": 4,
          "material": 2
        }
      ]
    },
    {
      "primitives": [
        {
          "attributes": {
            "POSITION": 21
          },
          "indices": 20,
          "mode": 4,
          "material": 3
        }
      ]
    },
    {
      "primitives": [
        {
          "attributes": {
            "POSITION": 23
          },
          "indices": 22,
          "mode": 4,
          "material": 4
        }
      ]
    },
    {
      "primitives": [
        {
          "attributes": {
            "POSITION": 25
          },
          "indices": 24,
          "mode": 4,
          "material": 5
        }
      ]
    },
    {
      "primitives": [
        {
          "attributes": {
            "POSITION": 27
          },
          "indices": 26,
          "mode": 4,
          "material": 6
        }
      ]
    },
    {
      "primitives": [
        {
          "attributes": {
            "POSITION": 29
          },
          "indices": 28,
          "mode": 4,
          "material": 7
        }
      ]
    },
    {
      "primitives": [
        {
          "attributes": {
            "POSITION": 31
          },
          "indices": 30,
          "mode": 4,
          "material": 0
        }
      ]
    },
    {
      "primitives": [
        {
          "attributes": {
            "POSITION": 33
          },
          "indices": 32,
          "mode": 4,
          "material": 2
        }
      ]
    },
    {
      "primitives": [
        {
          "attributes": {
            "POSITION": 35
          },
          "indices": 34,
          "mode": 4,
          "material": 3
        }
      ]
    },
    {
      "primitives": [
        {
          "attributes": {
            "POSITION": 37
          },
          "indices": 36,
          "mode": 4,
          "material": 4
        }
      ]
    },
    {
      "primitives": [
        {
          "attributes": {
            "POSITION": 39
          },
          "indices": 38,
          "mode": 4,
          "material": 5
        }
      ]
    },
    {
      "primitives": [
        {
          "attributes": {
            "POSITION": 41
          },
          "indices": 40,
          "mode": 4,
          "material": 6
        }
      ]
    },
    {
      "primitives": [
        {
          "attributes": {
            "POSITION": 43
          },
          "indices": 42,
          "mode": 4,
          "material": 7
        }
      ]
    },
    {
      "primitives": [
        {
          "attributes": {
            "POSITION": 45
          },
          "indices": 44,
          "mode": 4,
          "material": 0
        }
      ]
    },
    {
      "primitives": [
        {
          "attributes": {
            "POSITION": 47
          },
          "indices": 46,
          "mode": 4,
          "material": 1
        }
      ]
    },
    {
      "primitives": [
        {
          "attributes": {
            "POSITION": 49
          },
          "indices": 48,
          "mode": 4,
          "material": 2
        }
      ]
    },
    {
      "primitives": [
        {
          "attributes": {
            "POSITION": 51
          },
          "indices": 50,
          "mode": 4,
          "material": 3
        }
      ]
    },
    {
      "primitives": [
        {
          "attributes": {
            "POSITION": 53
          },
          "indices": 52,
          "mode": 4,
          "material": 4
        }
      ]
    },
    {
      "primitives": [
        {
          "attributes": {
            "POSITION": 55
          },
          "indices": 54,
          "mode": 4,
          "material": 5
        }
      ]
    },
    {
      "primitives": [
        {
          "attributes": {
            "POSITION": 57
          },
          "indices": 56,
          "mode": 4,
          "material": 6
        }
      ]
    },
    {
      "primitives": [
        {
          "attributes": {
            "POSITION": 59
          },
          "indices": 58,
          "mode": 4,
          "material": 7
        }
      ]
    },
    {
      "primitives": [
        {
          "attributes": {
            "POSITION": 61
          },
          "indices": 60,
          "mode": 4,
          "material": 5
        }
      ]
    },
    {
      "primitives": [
        {
          "attributes": {
            "POSITION": 63
          },
          "indices": 62,
          "mode": 4,
          "material": 6
        }
      ]
    },
    {
      "primitives": [
        {
          "attributes": {
            "POSITION": 65
          },
          "indices": 64,
          "mode": 4,
          "material": 7
        }
      ]
    },
    {
      "primitives": [
        {
          "attributes": {
            "POSITION": 67
          },
          "indices": 66,
          "mode": 4,
          "material": 8
        }
      ]
    },
    {
      "primitives": [
        {
          "attributes": {
            "POSITION": 69
          },
          "indices": 68,
          "mode": 4,
          "material": 9
        }
      ]
    },
    {
      "primitives": [
        {
          "attributes": {
            "POSITION": 71
          },
          "indices": 70,
          "mode": 4,
          "material": 0
        }
      ]
    },
    {
      "primitives": [
        {
          "attributes": {
            "POSITION": 73
          },
          "indices": 72,
          "mode": 4,
          "material": 7
        }
      ]
    },
    {
      "primitives": [
        {
          "attributes": {
            "POSITION": 75
          },
          "indices": 74,
          "mode": 4,
          "material": 8
        }
      ]
    },
    {
      "primitives": [
        {
          "attributes": {
            "POSITION": 77
          },
          "indices": 76,
          "mode": 4,
          "material": 9
        }
      ]
    },
    {
      "primitives": [
        {
          "attributes": {
            "POSITION": 79
          },
          "indices": 78,
          "mode": 4,
          "material": 10
        }
      ]
    },
    {
      "primitives": [
        {
          "attributes": {
            "POSITION": 81
          },
          "indices": 80,
          "mode": 4,
          "material": 11
        }
      ]
    },
    {
      "primitives": [
        {
          "attributes": {
            "POSITION": 83
          },
          "indices": 82,
          "mode": 4,
          "material": 12
        }
      ]
    },
    {
      "primitives": [
        {
          "attributes": {
            "POSITION": 85
          },
          "indices": 84,
          "mode": 4,
          "material": 13
        }
      ]
    }
  ],
  "nodes": [
    {
      "children": [
        40,
        41,
        42,
        43,
        44,
        45,
        46,
        47,
        48
      ],
      "name": "tt_um_mattvenn_inverter"
    },
    {
      "mesh": 30,
      "name": "inverter_li1"
    },
    {
      "mesh": 31,
      "name": "inverter_mcon"
    },
    {
      "mesh": 32,
      "name": "inverter_met1"
    },
    {
      "mesh": 33,
      "name": "inverter_via"
    },
    {
      "mesh": 34,
      "name": "inverter_met2"
    },
    {
      "mesh": 0,
      "name": "sky130_fd_pr__nfet_01v8_648S5X_substrate"
    },
    {
      "mesh": 1,
      "name": "sky130_fd_pr__nfet_01v8_648S5X_diff"
    },
    {
      "mesh": 2,
      "name": "sky130_fd_pr__nfet_01v8_648S5X_poly"
    },
    {
      "mesh": 3,
      "name": "sky130_fd_pr__nfet_01v8_648S5X_licon"
    },
    {
      "mesh": 4,
      "name": "sky130_fd_pr__nfet_01v8_648S5X_li1"
    },
    {
      "mesh": 5,
      "name": "sky130_fd_pr__nfet_01v8_648S5X_mcon"
    },
    {
      "mesh": 6,
      "name": "sky130_fd_pr__nfet_01v8_648S5X_met1"
    },
    {
      "extras": {
        "type": "sky130_fd_pr__nfet_01v8_648S5X"
      },
      "translation": [
        4.915,
        -0.46,
        0
      ],
      "children": [
        6,
        7,
        8,
        9,
        10,
        11,
        12
      ],
      "name": "XM4"
    },
    {
      "mesh": 7,
      "name": "sky130_fd_pr__pfet_01v8_XGS3BL_substrate"
    },
    {
      "mesh": 8,
      "name": "sky130_fd_pr__pfet_01v8_XGS3BL_nwell"
    },
    {
      "mesh": 9,
      "name": "sky130_fd_pr__pfet_01v8_XGS3BL_diff"
    },
    {
      "mesh": 10,
      "name": "sky130_fd_pr__pfet_01v8_XGS3BL_poly"
    },
    {
      "mesh": 11,
      "name": "sky130_fd_pr__pfet_01v8_XGS3BL_licon"
    },
    {
      "mesh": 12,
      "name": "sky130_fd_pr__pfet_01v8_XGS3BL_li1"
    },
    {
      "mesh": 13,
      "name": "sky130_fd_pr__pfet_01v8_XGS3BL_mcon"
    },
    {
      "mesh": 14,
      "name": "sky130_fd_pr__pfet_01v8_XGS3BL_met1"
    },
    {
      "extras": {
        "type": "sky130_fd_pr__pfet_01v8_XGS3BL"
      },
      "translation": [
        4.9350000000000005,
        3.585,
        0
      ],
      "children": [
        14,
        15,
        16,
        17,
        18,
        19,
        20,
        21
      ],
      "name": "XM3"
    },
    {
      "mesh": 15,
      "name": "sky130_fd_pr__nfet_01v8_YTLFGX_substrate"
    },
    {
      "mesh": 16,
      "name": "sky130_fd_pr__nfet_01v8_YTLFGX_diff"
    },
    {
      "mesh": 17,
      "name": "sky130_fd_pr__nfet_01v8_YTLFGX_poly"
    },
    {
      "mesh": 18,
      "name": "sky130_fd_pr__nfet_01v8_YTLFGX_licon"
    },
    {
      "mesh": 19,
      "name": "sky130_fd_pr__nfet_01v8_YTLFGX_li1"
    },
    {
      "mesh": 20,
      "name": "sky130_fd_pr__nfet_01v8_YTLFGX_mcon"
    },
    {
      "mesh": 21,
      "name": "sky130_fd_pr__nfet_01v8_YTLFGX_met1"
    },
    {
      "extras": {
        "type": "sky130_fd_pr__nfet_01v8_YTLFGX"
      },
      "translation": [
        13.755,
        -0.5,
        0
      ],
      "children": [
        23,
        24,
        25,
        26,
        27,
        28,
        29
      ],
      "name": "XM2"
    },
    {
      "mesh": 22,
      "name": "sky130_fd_pr__pfet_01v8_8DVCWJ_substrate"
    },
    {
      "mesh": 23,
      "name": "sky130_fd_pr__pfet_01v8_8DVCWJ_nwell"
    },
    {
      "mesh": 24,
      "name": "sky130_fd_pr__pfet_01v8_8DVCWJ_diff"
    },
    {
      "mesh": 25,
      "name": "sky130_fd_pr__pfet_01v8_8DVCWJ_poly"
    },
    {
      "mesh": 26,
      "name": "sky130_fd_pr__pfet_01v8_8DVCWJ_licon"
    },
    {
      "mesh": 27,
      "name": "sky130_fd_pr__pfet_01v8_8DVCWJ_li1"
    },
    {
      "mesh": 28,
      "name": "sky130_fd_pr__pfet_01v8_8DVCWJ_mcon"
    },
    {
      "mesh": 29,
      "name": "sky130_fd_pr__pfet_01v8_8DVCWJ_met1"
    },
    {
      "extras": {
        "type": "sky130_fd_pr__pfet_01v8_8DVCWJ"
      },
      "translation": [
        13.785,
        3.535,
        0
      ],
      "children": [
        31,
        32,
        33,
        34,
        35,
        36,
        37,
        38
      ],
      "name": "sky130_fd_pr__pfet_01v8_8DVCWJ_0"
    },
    {
      "extras": {
        "type": "inverter"
      },
      "translation": [
        134.37,
        16.04,
        0
      ],
      "children": [
        1,
        2,
        3,
        4,
        5,
        13,
        22,
        30,
        39
      ],
      "name": "inverter_0"
    },
    {
      "mesh": 35,
      "name": "tt_um_mattvenn_inverter_substrate"
    },
    {
      "mesh": 36,
      "name": "tt_um_mattvenn_inverter_met1"
    },
    {
      "mesh": 37,
      "name": "tt_um_mattvenn_inverter_via"
    },
    {
      "mesh": 38,
      "name": "tt_um_mattvenn_inverter_met2"
    },
    {
      "mesh": 39,
      "name": "tt_um_mattvenn_inverter_via2"
    },
    {
      "mesh": 40,
      "name": "tt_um_mattvenn_inverter_met3"
    },
    {
      "mesh": 41,
      "name": "tt_um_mattvenn_inverter_via3"
    },
    {
      "mesh": 42,
      "name": "tt_um_mattvenn_inverter_met4"
    }
  ],
  "scene": 0,
  "scenes": [
    {
      "nodes": [
        0
      ]
    }
  ]
}